<?xml version="1.0" encoding="UTF-8"?>
<svg id="Layer_1" data-name="Layer 1" xmlns="http://www.w3.org/2000/svg" xmlns:xlink="http://www.w3.org/1999/xlink" viewBox="0 0 640 768">
  <defs>
    <style>
      .cls-1 {
        fill: #fff;
      }

      .cls-2 {
        stroke: #a39ece;
      }

      .cls-2, .cls-3, .cls-4, .cls-5, .cls-6 {
        fill: none;
      }

      .cls-2, .cls-4, .cls-5, .cls-6 {
        stroke-width: 2px;
      }

      .cls-7 {
        fill: url(#linear-gradient-2);
      }

      .cls-7, .cls-8, .cls-9, .cls-10 {
        isolation: isolate;
        opacity: .7;
      }

      .cls-8 {
        fill: url(#linear-gradient-4);
      }

      .cls-11 {
        opacity: .2;
      }

      .cls-9 {
        fill: url(#linear-gradient);
      }

      .cls-12 {
        clip-path: url(#clippath);
      }

      .cls-4 {
        stroke: #65cdf4;
      }

      .cls-5 {
        stroke: #a59fce;
      }

      .cls-6 {
        stroke: #66cdf2;
      }

      .cls-10 {
        fill: url(#linear-gradient-3);
      }
    </style>
    <clipPath id="clippath">
      <rect class="cls-3" width="640" height="768"/>
    </clipPath>
    <linearGradient id="linear-gradient" x1="75.08" y1="720.68" x2="75.08" y2="719.68" gradientTransform="translate(-160130.73 314435.37) scale(2140.34 -435.98)" gradientUnits="userSpaceOnUse">
      <stop offset="0" stop-color="#a9a5d2"/>
      <stop offset="1" stop-color="#fff" stop-opacity="0"/>
    </linearGradient>
    <linearGradient id="linear-gradient-2" gradientTransform="translate(-160232.33 314621.77) scale(2140.34 -435.98)" xlink:href="#linear-gradient"/>
    <linearGradient id="linear-gradient-3" x1="75.08" y1="720.76" x2="75.08" y2="719.76" gradientTransform="translate(-160253.8 239270.89) scale(2140.33 -331.63)" gradientUnits="userSpaceOnUse">
      <stop offset="0" stop-color="#65cdf4"/>
      <stop offset="1" stop-color="#fff" stop-opacity="0"/>
    </linearGradient>
    <linearGradient id="linear-gradient-4" x1="75.08" x2="75.08" gradientTransform="translate(-160496.78 239359.16) scale(2140.33 -331.63)" xlink:href="#linear-gradient-3"/>
  </defs>
  <g class="cls-12">
    <g id="Group_4" data-name="Group 4">
      <g id="Products_Sold_Graph" data-name="Products Sold Graph" class="cls-11">
        <path id="Filled.Graph" class="cls-9" d="M-494.79,600.22v-174.54s246.8,114.48,444,121.67c213.23-6.97,250.16-55.96,416.25-121.67,141.93-54.77,283.48-69.8,419.33-65.93s253.61,63.04,414.09,69.1c283.1-24.43,427.54-147.93,446.67-199.51v435.79l-2140.34,.19v-65.11Z"/>
        <path id="Line.Graph" class="cls-2" d="M-492.83,426.14s245.21,117.21,439.09,119.73,268.35-60.48,416.85-119.58c148.5-59.09,289.67-69.18,419.64-67.19s256.32,63.91,416.02,67.2,418.05-107.04,446.78-199"/>
        <g id="Mar.Ellipse">
          <circle class="cls-1" cx="363.51" cy="427.11" r="9.81"/>
          <circle class="cls-5" cx="363.51" cy="427.11" r="8.81"/>
        </g>
        <g id="Feb.Ellipse">
          <circle class="cls-1" cx="79.92" cy="535.69" r="9.81"/>
          <circle class="cls-5" cx="79.92" cy="535.69" r="8.81"/>
        </g>
      </g>
      <g id="Products_Sold_Graph-2" data-name="Products Sold Graph-2" class="cls-11">
        <path id="Filled.Graph-2" class="cls-7" d="M-596.39,786.62v-174.54s246.8,114.48,444,121.67c213.23-6.97,250.16-55.96,416.25-121.67,141.93-54.77,283.48-69.8,419.33-65.93s253.61,63.04,414.09,69.1c283.1-24.43,427.54-147.93,446.67-199.51v435.79l-2140.34,.19v-65.11Z"/>
        <path id="Line.Graph-2" class="cls-2" d="M-594.43,612.54s245.21,117.21,439.09,119.73,268.35-60.48,416.85-119.58,289.67-69.18,419.64-67.19,256.32,63.91,416.02,67.2,418.05-107.04,446.78-199"/>
        <g id="Mar.Ellipse-2">
          <circle class="cls-1" cx="261.91" cy="613.51" r="9.81"/>
          <circle class="cls-5" cx="261.91" cy="613.51" r="8.81"/>
        </g>
      </g>
      <g id="Total_Views_Graph" data-name="Total Views Graph" class="cls-11">
        <path id="Filled.Graph-3" class="cls-10" d="M-618.3,511.67V245.15s240.89,264.98,438.76,274.95c220.78-2.25,222.59-137.56,416.6-211.64,162.42-58.17,286.35,100.5,422.21,104.37s229.62-108.74,414.97-116.56c240.14,11.78,432.84,162.23,447.79,170.32v109.99l-2140.33,.19v-65.11Z"/>
        <path id="Line.Graph-3" class="cls-4" d="M-619.63,247.41s248.38,269.86,442.5,272.39S83.37,360.79,239.24,306.33s291.08,103.87,421.21,105.86,254.72-118.95,414.62-115.66c159.89,3.29,342.7,94.77,443.77,166.93"/>
        <g id="Mar.Ellipse-3">
          <circle class="cls-1" cx="303.09" cy="295.5" r="9.81"/>
          <circle class="cls-6" cx="303.09" cy="295.5" r="8.81"/>
        </g>
      </g>
      <g id="Total_Views_Graph-2" data-name="Total Views Graph-2" class="cls-11">
        <path id="Filled.Graph-4" class="cls-8" d="M-861.28,599.94V333.42s240.89,264.98,438.76,274.95c220.78-2.25,222.59-137.56,416.6-211.64,162.42-58.17,286.35,100.5,422.21,104.37s229.62-108.74,414.97-116.56c240.14,11.78,432.84,162.23,447.79,170.32v109.99l-2140.33,.19v-65.11Z"/>
        <path id="Line.Graph-4" class="cls-4" d="M-861.81,335.68s248.38,269.86,442.5,272.39S-158.81,449.06-2.94,394.6s291.08,103.87,421.21,105.86,254.72-118.95,414.62-115.66c159.89,3.29,342.7,94.77,443.77,166.93"/>
        <g id="Apr.Ellipse">
          <circle class="cls-1" cx="497.61" cy="489.09" r="9.81"/>
          <circle class="cls-6" cx="497.61" cy="489.09" r="8.81"/>
        </g>
        <g id="Mar.Ellipse-4">
          <circle class="cls-1" cx="-4.96" cy="394.25" r="9.81"/>
          <circle class="cls-6" cx="-4.96" cy="394.25" r="8.81"/>
        </g>
      </g>
    </g>
  </g>
</svg>